<?xml version="1.0" encoding="UTF-8"?>
<!DOCTYPE svg PUBLIC "-//W3C//DTD SVG 1.1//EN" "http://www.w3.org/Graphics/SVG/1.1/DTD/svg11.dtd">
<svg xmlns="http://www.w3.org/2000/svg" version="1.1" width="627px" height="379px" style="shape-rendering:geometricPrecision; text-rendering:geometricPrecision; image-rendering:optimizeQuality; fill-rule:evenodd; clip-rule:evenodd" xmlns:xlink="http://www.w3.org/1999/xlink">
<g><path style="opacity:1" fill="#1cfe00" d="M 216.5,95.5 C 215.957,95.56 215.624,95.8933 215.5,96.5C 248.162,97.3332 280.828,97.8332 313.5,98C 316,99.1667 317.833,101 319,103.5C 320.039,102.756 320.539,101.756 320.5,100.5C 322.01,99.1639 323.677,97.9973 325.5,97C 344.678,97.3398 363.845,97.1731 383,96.5C 386.855,96.595 389.855,98.2616 392,101.5C 393.118,106.726 393.618,112.059 393.5,117.5C 392.544,152.034 392.544,186.701 393.5,221.5C 399.167,221.5 404.833,221.5 410.5,221.5C 410.012,181.081 410.512,140.748 412,100.5C 414,97.8333 416.667,96.5 420,96.5C 437.495,97.7948 454.995,97.7948 472.5,96.5C 477.916,95.8743 481.916,97.8743 484.5,102.5C 484.334,112.839 484.5,123.172 485,133.5C 493.675,111.16 509.842,97.9936 533.5,94C 550.909,92.9389 568.243,93.6055 585.5,96C 588.548,96.6064 591.048,98.1064 593,100.5C 594.64,119.076 594.974,137.743 594,156.5C 592.833,159 591,160.833 588.5,162C 582.462,162.471 576.462,162.471 570.5,162C 583.04,171.54 593.873,182.706 603,195.5C 614.485,215.575 616.485,236.575 609,258.5C 600.697,276.803 586.864,288.637 567.5,294C 541.656,298.655 515.989,297.655 490.5,291C 484.414,287.659 481.914,282.493 483,275.5C 479.745,283.089 474.245,288.256 466.5,291C 423.167,291.667 379.833,291.667 336.5,291C 330.437,288.271 325.603,284.104 322,278.5C 322.87,284.564 320.704,289.064 315.5,292C 264.163,292.167 212.83,292.667 161.5,293.5C 145.14,315.359 128.974,337.359 113,359.5C 106.272,367.953 98.939,368.619 91,361.5C 89.4796,357.625 89.1462,353.625 90,349.5C 98.226,330.714 106.726,312.048 115.5,293.5C 86.5057,292.667 57.5057,292.167 28.5,292C 22.3696,287.927 20.8696,282.427 24,275.5C 41.7848,238.265 59.2848,200.932 76.5,163.5C 77.2674,162.828 77.9341,161.995 78.5,161C 65.8377,160.5 53.1711,160.333 40.5,160.5C 35.4041,157.633 33.5708,153.3 35,147.5C 40.938,132.516 46.7714,117.516 52.5,102.5C 54.34,100.832 56.34,99.332 58.5,98C 80.1641,97.5 101.831,97.3334 123.5,97.5C 138.827,96.9021 154.16,96.4021 169.5,96C 184.457,73.9195 199.291,51.7528 214,29.5C 220.701,21.9388 227.701,21.6055 235,28.5C 236.534,32.7109 236.867,37.0442 236,41.5C 229.194,59.4209 222.694,77.4209 216.5,95.5 Z M 316.5,224.5 C 317.773,225.077 317.773,225.743 316.5,226.5C 315.537,226.03 315.537,225.363 316.5,224.5 Z M 485.5,178.5 C 496.215,196.051 510.215,210.551 527.5,222C 528.451,222.718 528.617,223.551 528,224.5C 523.86,222.264 519.527,221.93 515,223.5C 510.171,222.838 505.671,221.338 501.5,219C 497.167,218.333 492.833,218.333 488.5,219C 487.584,219.374 486.75,219.874 486,220.5C 485.5,206.504 485.333,192.504 485.5,178.5 Z M 315.5,161.5 C 317.225,161.843 317.725,162.843 317,164.5C 314.842,163.95 314.342,162.95 315.5,161.5 Z M 166.5,150.5 C 164.121,156.807 162.454,163.307 161.5,170C 161.091,175.183 163.091,179.183 167.5,182C 180.589,184.884 193.922,186.217 207.5,186C 196.033,202.433 184.2,218.6 172,234.5C 172.032,232.402 172.699,230.402 174,228.5C 175.424,221.241 172.59,216.408 165.5,214C 152.154,213.833 138.821,213.333 125.5,212.5C 127.418,207.002 130.584,202.335 135,198.5C 140.74,189.361 146.74,180.361 153,171.5C 154.166,166.501 156.833,162.501 161,159.5C 161.843,155.8 163.676,152.8 166.5,150.5 Z"/></g>
<g><path style="opacity:0.968" fill="#fefeff" d="M 222.5,31.5 C 226.198,30.6798 228.531,32.0131 229.5,35.5C 220.961,58.4534 212.627,81.4534 204.5,104.5C 240.168,104.333 275.835,104.5 311.5,105C 312.491,120.756 312.825,136.589 312.5,152.5C 296.167,152.5 279.833,152.5 263.5,152.5C 263.5,158.833 263.5,165.167 263.5,171.5C 279.5,171.5 295.5,171.5 311.5,171.5C 311.824,186.745 311.491,201.911 310.5,217C 294.837,217.5 279.17,217.667 263.5,217.5C 263.5,223.833 263.5,230.167 263.5,236.5C 280.167,236.5 296.833,236.5 313.5,236.5C 313.5,252.5 313.5,268.5 313.5,284.5C 261.499,284.333 209.499,284.5 157.5,285C 140.211,308.411 123.044,331.911 106,355.5C 100.645,361.271 97.6448,360.271 97,352.5C 107.66,330.006 117.827,307.339 127.5,284.5C 94.8333,284.5 62.1667,284.5 29.5,284.5C 49.5425,240.746 69.8758,197.079 90.5,153.5C 74.8237,152.586 58.8237,152.252 42.5,152.5C 47.8072,136.413 53.8072,120.58 60.5,105C 98.5044,104.833 136.504,104.333 174.5,103.5C 190.51,79.4714 206.51,55.4714 222.5,31.5 Z M 166.5,150.5 C 163.676,152.8 161.843,155.8 161,159.5C 156.833,162.501 154.166,166.501 153,171.5C 146.74,180.361 140.74,189.361 135,198.5C 130.584,202.335 127.418,207.002 125.5,212.5C 138.821,213.333 152.154,213.833 165.5,214C 172.59,216.408 175.424,221.241 174,228.5C 172.699,230.402 172.032,232.402 172,234.5C 184.2,218.6 196.033,202.433 207.5,186C 193.922,186.217 180.589,184.884 167.5,182C 163.091,179.183 161.091,175.183 161.5,170C 162.454,163.307 164.121,156.807 166.5,150.5 Z"/></g>
<g><path style="opacity:0.04" fill="#9a86fd" d="M 485.5,112.5 C 485.813,108.958 485.479,105.625 484.5,102.5C 481.916,97.8743 477.916,95.8743 472.5,96.5C 454.995,97.7948 437.495,97.7948 420,96.5C 416.667,96.5 414,97.8333 412,100.5C 410.512,140.748 410.012,181.081 410.5,221.5C 404.833,221.5 399.167,221.5 393.5,221.5C 392.544,186.701 392.544,152.034 393.5,117.5C 393.618,112.059 393.118,106.726 392,101.5C 389.855,98.2616 386.855,96.595 383,96.5C 363.845,97.1731 344.678,97.3398 325.5,97C 323.677,97.9973 322.01,99.1639 320.5,100.5C 318.405,99.588 316.405,98.4213 314.5,97C 281.664,96.8324 248.997,96.3324 216.5,95.5C 222.694,77.4209 229.194,59.4209 236,41.5C 236.867,37.0442 236.534,32.7109 235,28.5C 227.701,21.6055 220.701,21.9388 214,29.5C 199.291,51.7528 184.457,73.9195 169.5,96C 154.16,96.4021 138.827,96.9021 123.5,97.5C 101.671,96.3371 79.6705,96.1705 57.5,97C 55.3395,97.9959 53.6728,99.4959 52.5,101.5C 52.1667,101.5 51.8333,101.5 51.5,101.5C 52.972,95.5381 56.8054,92.8715 63,93.5C 66.3388,93.423 69.5055,94.0897 72.5,95.5C 73.938,95.2811 75.2713,94.7811 76.5,94C 87.3333,93.8333 98.1667,93.6667 109,93.5C 128.59,93.6006 148.09,94.1006 167.5,95C 183.606,72.6365 199.106,49.8031 214,26.5C 220.702,20.4516 227.869,19.9516 235.5,25C 238.648,27.7952 240.314,31.2952 240.5,35.5C 234.098,55.6526 227.098,75.6526 219.5,95.5C 251.502,95.3334 283.502,95.5 315.5,96C 316.931,96.4652 318.097,97.2986 319,98.5C 321.167,97 323.333,95.5 325.5,94C 346.589,93.0233 367.589,93.3567 388.5,95C 390.709,96.8734 392.542,99.04 394,101.5C 394.167,140.838 394.667,180.171 395.5,219.5C 399.094,220.426 402.76,220.759 406.5,220.5C 406.491,218.692 406.991,217.025 408,215.5C 408.667,182.833 408.667,150.167 408,117.5C 403.981,107.441 406.481,99.6076 415.5,94C 436.5,93.3333 457.5,93.3333 478.5,94C 485.732,97.2978 488.565,102.798 487,110.5C 486.722,111.416 486.222,112.082 485.5,112.5 Z"/></g>
<g><path style="opacity:1" fill="#1ffe03" d="M 205.5,73.5 C 194.836,103.99 183.669,134.324 172,164.5C 169.964,167.896 170.131,171.062 172.5,174C 190.833,174.333 209.167,174.667 227.5,175C 193.455,221.589 159.289,268.089 125,314.5C 137.418,285.28 150.252,256.113 163.5,227C 163.561,225.289 162.894,223.956 161.5,223C 143.158,222.833 124.824,222.333 106.5,221.5C 139.523,172.101 172.523,122.768 205.5,73.5 Z M 166.5,150.5 C 163.676,152.8 161.843,155.8 161,159.5C 156.833,162.501 154.166,166.501 153,171.5C 146.74,180.361 140.74,189.361 135,198.5C 130.584,202.335 127.418,207.002 125.5,212.5C 138.821,213.333 152.154,213.833 165.5,214C 172.59,216.408 175.424,221.241 174,228.5C 172.699,230.402 172.032,232.402 172,234.5C 184.2,218.6 196.033,202.433 207.5,186C 193.922,186.217 180.589,184.884 167.5,182C 163.091,179.183 161.091,175.183 161.5,170C 162.454,163.307 164.121,156.807 166.5,150.5 Z"/></g>
<g><path style="opacity:1" fill="#b92aff" d="M 123.5,97.5 C 101.831,97.3334 80.1641,97.5 58.5,98C 56.34,99.332 54.34,100.832 52.5,102.5C 52.5,102.167 52.5,101.833 52.5,101.5C 53.6728,99.4959 55.3395,97.9959 57.5,97C 79.6705,96.1705 101.671,96.3371 123.5,97.5 Z"/></g>
<g><path style="opacity:0.988" fill="#b443ff" d="M 216.5,95.5 C 248.997,96.3324 281.664,96.8324 314.5,97C 316.405,98.4213 318.405,99.588 320.5,100.5C 320.539,101.756 320.039,102.756 319,103.5C 317.833,101 316,99.1667 313.5,98C 280.828,97.8332 248.162,97.3332 215.5,96.5C 215.624,95.8933 215.957,95.56 216.5,95.5 Z"/></g>
<g><path style="opacity:0.795" fill="#9d7bfe" d="M 51.5,101.5 C 51.8333,101.5 52.1667,101.5 52.5,101.5C 52.5,101.833 52.5,102.167 52.5,102.5C 46.7714,117.516 40.938,132.516 35,147.5C 33.5708,153.3 35.4041,157.633 40.5,160.5C 52.7014,160.84 64.7014,161.84 76.5,163.5C 59.2848,200.932 41.7848,238.265 24,275.5C 20.8696,282.427 22.3696,287.927 28.5,292C 57.5057,292.167 86.5057,292.667 115.5,293.5C 106.726,312.048 98.226,330.714 90,349.5C 89.1462,353.625 89.4796,357.625 91,361.5C 98.939,368.619 106.272,367.953 113,359.5C 128.974,337.359 145.14,315.359 161.5,293.5C 212.83,292.667 264.163,292.167 315.5,292C 320.704,289.064 322.87,284.564 322,278.5C 325.603,284.104 330.437,288.271 336.5,291C 379.833,291.667 423.167,291.667 466.5,291C 474.245,288.256 479.745,283.089 483,275.5C 481.914,282.493 484.414,287.659 490.5,291C 515.989,297.655 541.656,298.655 567.5,294C 586.864,288.637 600.697,276.803 609,258.5C 616.485,236.575 614.485,215.575 603,195.5C 593.873,182.706 583.04,171.54 570.5,162C 576.462,162.471 582.462,162.471 588.5,162C 591,160.833 592.833,159 594,156.5C 594.974,137.743 594.64,119.076 593,100.5C 591.048,98.1064 588.548,96.6064 585.5,96C 568.243,93.6055 550.909,92.9389 533.5,94C 509.842,97.9936 493.675,111.16 485,133.5C 484.5,123.172 484.334,112.839 484.5,102.5C 485.479,105.625 485.813,108.958 485.5,112.5C 485.334,117.179 485.501,121.845 486,126.5C 496.599,106.765 513.099,95.2648 535.5,92C 551.907,90.9921 568.24,91.6587 584.5,94C 594.922,95.7224 598.755,101.556 596,111.5C 595.833,117.333 595.667,123.167 595.5,129C 595.544,138.608 596.044,148.108 597,157.5C 593.05,166.056 586.55,168.89 577.5,166C 588.079,174.577 597.245,184.41 605,195.5C 614.064,211.01 617.064,227.677 614,245.5C 609.112,270.441 594.612,286.941 570.5,295C 559.836,297.17 549.169,299.003 538.5,300.5C 521.373,298.724 504.373,295.891 487.5,292C 483.479,290.132 481.313,286.965 481,282.5C 477.263,287.578 472.43,291.078 466.5,293C 423.5,293.667 380.5,293.667 337.5,293C 332.221,291.384 327.721,288.551 324,284.5C 323.332,288.499 321.165,291.332 317.5,293C 266.497,293.167 215.497,293.667 164.5,294.5C 148.097,316.298 131.93,338.298 116,360.5C 106.333,371.167 96.6667,371.167 87,360.5C 84.3443,354.726 85.3443,349.726 90,345.5C 97.7917,328.604 104.958,311.604 111.5,294.5C 85.3294,293.217 59.1627,293.217 33,294.5C 21.4092,293.894 17.0758,287.894 20,276.5C 24.4243,270.658 28.0909,264.324 31,257.5C 45.7049,225.924 60.5383,194.424 75.5,163C 63.5,162.667 51.5,162.333 39.5,162C 32.5771,158.259 30.7437,152.759 34,145.5C 39.7625,130.694 45.5958,116.027 51.5,101.5 Z M 316.5,224.5 C 315.537,225.363 315.537,226.03 316.5,226.5C 317.773,225.743 317.773,225.077 316.5,224.5 Z M 485.5,178.5 C 485.333,192.504 485.5,206.504 486,220.5C 486.75,219.874 487.584,219.374 488.5,219C 492.833,218.333 497.167,218.333 501.5,219C 505.671,221.338 510.171,222.838 515,223.5C 519.527,221.93 523.86,222.264 528,224.5C 528.617,223.551 528.451,222.718 527.5,222C 510.215,210.551 496.215,196.051 485.5,178.5 Z M 315.5,161.5 C 314.342,162.95 314.842,163.95 317,164.5C 317.725,162.843 317.225,161.843 315.5,161.5 Z M 166.5,150.5 C 163.676,152.8 161.843,155.8 161,159.5C 156.833,162.501 154.166,166.501 153,171.5C 146.74,180.361 140.74,189.361 135,198.5C 130.584,202.335 127.418,207.002 125.5,212.5C 138.821,213.333 152.154,213.833 165.5,214C 172.59,216.408 175.424,221.241 174,228.5C 172.699,230.402 172.032,232.402 172,234.5C 184.2,218.6 196.033,202.433 207.5,186C 193.922,186.217 180.589,184.884 167.5,182C 163.091,179.183 161.091,175.183 161.5,170C 162.454,163.307 164.121,156.807 166.5,150.5 Z"/></g>
<g><path style="opacity:0.06" fill="#9b7dff" d="M 172.5,136.5 C 173.097,136.735 173.43,137.235 173.5,138C 169.861,147.446 166.361,156.946 163,166.5C 161.246,174.158 164.079,179.324 171.5,182C 184.846,182.167 198.179,182.667 211.5,183.5C 196.193,204.641 180.693,225.641 165,246.5C 167.398,240.007 169.564,233.34 171.5,226.5C 171.44,221.929 169.44,218.429 165.5,216C 150.915,214.865 136.248,214.032 121.5,213.5C 138.759,187.976 155.759,162.31 172.5,136.5 Z M 166.5,150.5 C 163.676,152.8 161.843,155.8 161,159.5C 156.833,162.501 154.166,166.501 153,171.5C 146.74,180.361 140.74,189.361 135,198.5C 130.584,202.335 127.418,207.002 125.5,212.5C 138.821,213.333 152.154,213.833 165.5,214C 172.59,216.408 175.424,221.241 174,228.5C 172.699,230.402 172.032,232.402 172,234.5C 184.2,218.6 196.033,202.433 207.5,186C 193.922,186.217 180.589,184.884 167.5,182C 163.091,179.183 161.091,175.183 161.5,170C 162.454,163.307 164.121,156.807 166.5,150.5 Z"/></g>
<g><path style="opacity:0.62" fill="#9389ff" d="M 317.5,229.5 C 302.215,228.531 286.881,228.198 271.5,228.5C 271.5,227.5 271.5,226.5 271.5,225.5C 285.504,225.667 299.504,225.5 313.5,225C 315.286,224.215 316.786,223.049 318,221.5C 318.801,224.367 318.634,227.034 317.5,229.5 Z M 316.5,224.5 C 315.537,225.363 315.537,226.03 316.5,226.5C 317.773,225.743 317.773,225.077 316.5,224.5 Z"/></g>
<g><path style="opacity:0.098" fill="#9c7bff" d="M 484.5,171.5 C 490.183,185.374 498.849,197.207 510.5,207C 517.5,212.5 524.5,218 531.5,223.5C 532.833,224.167 532.833,224.833 531.5,225.5C 530.393,226.022 529.226,226.355 528,226.5C 516.185,225.364 504.518,223.364 493,220.5C 489.667,220.5 487,221.833 485,224.5C 484.5,206.836 484.333,189.17 484.5,171.5 Z M 485.5,178.5 C 485.333,192.504 485.5,206.504 486,220.5C 486.75,219.874 487.584,219.374 488.5,219C 492.833,218.333 497.167,218.333 501.5,219C 505.671,221.338 510.171,222.838 515,223.5C 519.527,221.93 523.86,222.264 528,224.5C 528.617,223.551 528.451,222.718 527.5,222C 510.215,210.551 496.215,196.051 485.5,178.5 Z"/></g>
<g><path style="opacity:0.969" fill="#af51ff" d="M 317.5,229.5 C 318.634,227.034 318.801,224.367 318,221.5C 316.786,223.049 315.286,224.215 313.5,225C 299.504,225.5 285.504,225.667 271.5,225.5C 284.994,224.669 298.661,224.169 312.5,224C 314.286,223.215 315.786,222.049 317,220.5C 318.14,211.763 318.64,202.93 318.5,194C 318.333,185.833 318.167,177.667 318,169.5C 317.487,168.473 316.987,167.473 316.5,166.5C 317.748,165.666 318.415,164.333 318.5,162.5C 318.333,161.167 318.167,159.833 318,158.5C 317.097,159.701 315.931,160.535 314.5,161C 300.171,161.5 285.837,161.667 271.5,161.5C 285.327,160.669 299.327,160.169 313.5,160C 316,158.833 317.833,157 319,154.5C 319.667,180.167 319.667,205.833 319,231.5C 318.283,230.956 317.783,230.289 317.5,229.5 Z"/></g>
<g><path style="opacity:0.953" fill="#ac5bff" d="M 40.5,160.5 C 53.1711,160.333 65.8377,160.5 78.5,161C 77.9341,161.995 77.2674,162.828 76.5,163.5C 64.7014,161.84 52.7014,160.84 40.5,160.5 Z"/></g>
<g><path style="opacity:0.106" fill="#908dff" d="M 316.5,166.5 C 315.317,165.496 313.984,164.662 312.5,164C 298.463,164.152 284.797,163.319 271.5,161.5C 285.837,161.667 300.171,161.5 314.5,161C 315.931,160.535 317.097,159.701 318,158.5C 318.167,159.833 318.333,161.167 318.5,162.5C 318.415,164.333 317.748,165.666 316.5,166.5 Z M 315.5,161.5 C 314.342,162.95 314.842,163.95 317,164.5C 317.725,162.843 317.225,161.843 315.5,161.5 Z"/></g>
<g><path style="opacity:0.975" fill="#fefefe" d="M 327.5,104.5 C 346.833,104.5 366.167,104.5 385.5,104.5C 385.333,144.835 385.5,185.168 386,225.5C 386.652,227.723 388.152,228.89 390.5,229C 397.833,229.667 405.167,229.667 412.5,229C 414.329,228.727 415.829,227.893 417,226.5C 417.333,186.167 417.667,145.833 418,105.5C 437.424,104.507 456.924,104.174 476.5,104.5C 476.988,161.226 476.488,217.892 475,274.5C 472.28,279.551 468.113,282.718 462.5,284C 422.167,284.667 381.833,284.667 341.5,284C 335.159,282.325 330.659,278.492 328,272.5C 327.5,216.501 327.333,160.501 327.5,104.5 Z"/></g>
<g><path style="opacity:0.973" fill="#fefeff" d="M 539.5,100.5 C 555.261,100.143 570.927,101.143 586.5,103.5C 586.5,120.833 586.5,138.167 586.5,155.5C 577.447,154.066 568.447,154.232 559.5,156C 558.707,157.085 558.04,158.252 557.5,159.5C 559.267,162.77 561.6,165.603 564.5,168C 578.044,177.211 589.211,188.711 598,202.5C 605.935,218.16 607.601,234.493 603,251.5C 597.68,266.822 587.513,277.655 572.5,284C 557.55,289.041 542.216,290.707 526.5,289C 514.634,288.16 502.967,286.16 491.5,283C 490.508,264.91 490.174,246.743 490.5,228.5C 502.345,231.202 514.345,232.868 526.5,233.5C 530.587,233.552 534.587,233.052 538.5,232C 542.32,228.045 542.487,223.878 539,219.5C 531.121,212.62 522.955,206.12 514.5,200C 493.508,182.692 486.342,160.858 493,134.5C 502.153,114.517 517.653,103.183 539.5,100.5 Z"/></g>
</svg>
