<?xml version="1.0" encoding="UTF-8"?>
<!DOCTYPE svg PUBLIC "-//W3C//DTD SVG 1.1//EN" "http://www.w3.org/Graphics/SVG/1.1/DTD/svg11.dtd">
<svg xmlns="http://www.w3.org/2000/svg" version="1.1" width="627px" height="379px" style="shape-rendering:geometricPrecision; text-rendering:geometricPrecision; image-rendering:optimizeQuality; fill-rule:evenodd; clip-rule:evenodd" xmlns:xlink="http://www.w3.org/1999/xlink">
<g><path style="opacity:0.957" fill="#000000" d="M 229.5,33.5 C 229.041,36.8774 228.374,40.2107 227.5,43.5C 226.596,44.209 226.263,45.209 226.5,46.5C 224.733,48.7916 223.733,51.4582 223.5,54.5C 222.069,55.7804 221.402,57.4471 221.5,59.5C 220.596,60.209 220.263,61.209 220.5,62.5C 218.733,64.7916 217.733,67.4582 217.5,70.5C 215.733,72.7916 214.733,75.4582 214.5,78.5C 212.733,80.7916 211.733,83.4582 211.5,86.5C 208.929,91.5372 206.929,96.8706 205.5,102.5C 204.957,102.56 204.624,102.893 204.5,103.5C 240.494,104.5 276.494,104.833 312.5,104.5C 312.5,120.833 312.5,137.167 312.5,153.5C 296.167,153.5 279.833,153.5 263.5,153.5C 263.5,159.5 263.5,165.5 263.5,171.5C 279.5,171.5 295.5,171.5 311.5,171.5C 311.5,186.833 311.5,202.167 311.5,217.5C 295.5,217.5 279.5,217.5 263.5,217.5C 263.5,223.833 263.5,230.167 263.5,236.5C 280.5,236.5 297.5,236.5 314.5,236.5C 314.5,252.5 314.5,268.5 314.5,284.5C 262.331,284.168 210.331,284.501 158.5,285.5C 157.833,285.5 157.5,285.833 157.5,286.5C 156.833,286.5 156.5,286.833 156.5,287.5C 155.662,287.842 155.328,288.508 155.5,289.5C 154.833,289.5 154.5,289.833 154.5,290.5C 153.026,291.436 152.026,292.77 151.5,294.5C 150.026,295.436 149.026,296.77 148.5,298.5C 145.601,301.952 142.934,305.618 140.5,309.5C 139.026,310.436 138.026,311.77 137.5,313.5C 136.094,313.973 135.427,314.973 135.5,316.5C 134.833,316.5 134.5,316.833 134.5,317.5C 133.512,318.795 132.512,320.128 131.5,321.5C 130.599,322.29 129.932,323.29 129.5,324.5C 128.833,324.5 128.5,324.833 128.5,325.5C 127.662,325.842 127.328,326.508 127.5,327.5C 126.833,327.5 126.5,327.833 126.5,328.5C 125.094,328.973 124.427,329.973 124.5,331.5C 123.833,331.5 123.5,331.833 123.5,332.5C 121.147,334.86 119.147,337.527 117.5,340.5C 116.599,341.29 115.932,342.29 115.5,343.5C 114.026,344.436 113.026,345.77 112.5,347.5C 110.453,349.55 108.786,351.883 107.5,354.5C 106.128,356.868 104.128,358.535 101.5,359.5C 98.5007,359.353 96.834,357.853 96.5,355C 102.701,340.1 109.034,325.266 115.5,310.5C 117.625,307.912 118.958,304.912 119.5,301.5C 120.338,301.158 120.672,300.492 120.5,299.5C 122.625,296.912 123.958,293.912 124.5,290.5C 125.645,289.207 125.311,288.041 123.5,287C 124.167,286.333 124.833,285.667 125.5,285C 93.7363,284.204 62.2363,284.371 31,285.5C 30.2496,284.874 29.4162,284.374 28.5,284C 29.2524,283.329 29.5858,282.496 29.5,281.5C 49.6414,239.046 69.9747,196.546 90.5,154C 74.0152,153.985 57.6819,153.319 41.5,152C 48.1928,136.42 54.1928,120.587 59.5,104.5C 97.8391,104.833 136.172,104.5 174.5,103.5C 189.918,79.6617 205.585,55.9951 221.5,32.5C 224.32,30.1977 226.986,30.5311 229.5,33.5 Z M 204.5,75.5 C 204.405,77.7857 203.738,79.7857 202.5,81.5C 202.672,80.5084 202.338,79.8417 201.5,79.5C 202.512,78.1283 203.512,76.795 204.5,75.5 Z M 200.5,81.5 C 200.5,82.1667 200.5,82.8333 200.5,83.5C 199.833,83.8333 199.167,84.1667 198.5,84.5C 198.427,82.9731 199.094,81.9731 200.5,81.5 Z M 200.5,83.5 C 200.833,83.5 201.167,83.5 201.5,83.5C 200.071,89.1294 198.071,94.4628 195.5,99.5C 195.267,102.542 194.267,105.208 192.5,107.5C 185.64,127.579 178.473,147.579 171,167.5C 170.104,170.025 170.604,172.192 172.5,174C 190.833,174.333 209.167,174.667 227.5,175C 226.837,176.518 225.837,177.685 224.5,178.5C 224.414,177.504 224.748,176.671 225.5,176C 223.833,175.333 222.167,175.333 220.5,176C 222.119,176.236 223.119,177.069 223.5,178.5C 222.167,178.833 222.167,179.167 223.5,179.5C 200.213,212.119 176.546,244.453 152.5,276.5C 151.922,275.453 151.256,275.62 150.5,277C 150.728,277.399 151.062,277.565 151.5,277.5C 150.214,280.117 148.547,282.45 146.5,284.5C 145.922,283.453 145.256,283.62 144.5,285C 144.728,285.399 145.062,285.565 145.5,285.5C 145.573,287.027 144.906,288.027 143.5,288.5C 142.673,287.561 142.006,287.895 141.5,289.5C 140.094,289.973 139.427,290.973 139.5,292.5C 138.167,292.833 138.167,293.167 139.5,293.5C 139.573,295.027 138.906,296.027 137.5,296.5C 137.167,295.167 136.833,295.167 136.5,296.5C 135.833,296.5 135.5,296.833 135.5,297.5C 135.5,295.5 135.5,293.5 135.5,291.5C 135.402,289.447 136.069,287.78 137.5,286.5C 137.369,287.239 137.536,287.906 138,288.5C 139.167,286.167 140.333,283.833 141.5,281.5C 141.376,280.893 141.043,280.56 140.5,280.5C 140.328,279.508 140.662,278.842 141.5,278.5C 142.042,275.088 143.375,272.088 145.5,269.5C 149.715,258.074 154.715,247.074 160.5,236.5C 160.328,235.508 160.662,234.842 161.5,234.5C 161.798,231.735 162.798,229.235 164.5,227C 163.833,225.667 163.167,224.333 162.5,223C 143.833,222.667 125.167,222.333 106.5,222C 107.066,221.005 107.733,220.172 108.5,219.5C 108.369,220.376 108.702,221.043 109.5,221.5C 110.463,221.03 110.463,220.363 109.5,219.5C 110.837,218.685 111.837,217.518 112.5,216C 112.272,215.601 111.938,215.435 111.5,215.5C 111.328,214.508 111.662,213.842 112.5,213.5C 113.475,211.205 114.808,209.205 116.5,207.5C 116.932,206.29 117.599,205.29 118.5,204.5C 120.808,200.205 123.474,196.205 126.5,192.5C 126.932,191.29 127.599,190.29 128.5,189.5C 130.265,186.291 132.265,183.291 134.5,180.5C 134.932,179.29 135.599,178.29 136.5,177.5C 137.475,175.205 138.808,173.205 140.5,171.5C 140.932,170.29 141.599,169.29 142.5,168.5C 142.932,167.29 143.599,166.29 144.5,165.5C 146.808,161.205 149.474,157.205 152.5,153.5C 154.808,149.205 157.474,145.205 160.5,141.5C 162.808,137.205 165.474,133.205 168.5,129.5C 172.425,121.976 177.092,114.976 182.5,108.5C 182.427,106.973 183.094,105.973 184.5,105.5C 185.759,101.975 187.759,98.9754 190.5,96.5C 191.759,92.9754 193.759,89.9754 196.5,87.5C 196.427,85.9731 197.094,84.9731 198.5,84.5C 199.623,85.7574 200.289,85.4241 200.5,83.5 Z M 136.5,296.5 C 136.833,296.5 137.167,296.5 137.5,296.5C 137.573,298.027 136.906,299.027 135.5,299.5C 135.5,298.833 135.5,298.167 135.5,297.5C 136.167,297.5 136.5,297.167 136.5,296.5 Z M 132.5,297.5 C 132.557,298.609 132.89,299.609 133.5,300.5C 132.833,300.5 132.167,300.5 131.5,300.5C 131.263,299.209 131.596,298.209 132.5,297.5 Z M 133.5,300.5 C 133.833,300.5 134.167,300.5 134.5,300.5C 134.262,302.404 133.262,303.738 131.5,304.5C 131.5,303.833 131.5,303.167 131.5,302.5C 132.5,302.167 133.167,301.5 133.5,300.5 Z M 128.5,306.5 C 128.5,307.167 128.833,307.5 129.5,307.5C 129.158,308.338 128.492,308.672 127.5,308.5C 127.328,307.508 127.662,306.842 128.5,306.5 Z M 127.5,308.5 C 128.045,310.399 127.378,312.066 125.5,313.5C 125.402,311.447 126.069,309.78 127.5,308.5 Z"/></g>
<g><path style="opacity:0.004" fill="#000000" d="M 229.5,32.5 C 230.833,33.1667 230.833,33.1667 229.5,32.5 Z"/></g>
<g><path style="opacity:0.008" fill="#000000" d="M 230.5,34.5 C 231.525,34.8966 231.692,35.5632 231,36.5C 230.536,35.9056 230.369,35.2389 230.5,34.5 Z"/></g>
<g><path style="opacity:0.008" fill="#000000" d="M 229.5,38.5 C 230.833,39.1667 230.833,39.1667 229.5,38.5 Z"/></g>
<g><path style="opacity:0.004" fill="#000000" d="M 228.5,41.5 C 229.833,42.1667 229.833,42.1667 228.5,41.5 Z"/></g>
<g><path style="opacity:0.01" fill="#000000" d="M 227.5,43.5 C 228.525,43.8966 228.692,44.5632 228,45.5C 227.536,44.9056 227.369,44.2389 227.5,43.5 Z"/></g>
<g><path style="opacity:0.004" fill="#000000" d="M 226.5,46.5 C 227.833,47.1667 227.833,47.1667 226.5,46.5 Z"/></g>
<g><path style="opacity:0.012" fill="#000000" d="M 223.5,54.5 C 224.833,55.1667 224.833,55.1667 223.5,54.5 Z"/></g>
<g><path style="opacity:0.004" fill="#000000" d="M 222.5,57.5 C 223.833,58.1667 223.833,58.1667 222.5,57.5 Z"/></g>
<g><path style="opacity:0.008" fill="#000000" d="M 221.5,59.5 C 222.525,59.8966 222.692,60.5632 222,61.5C 221.536,60.9056 221.369,60.2389 221.5,59.5 Z"/></g>
<g><path style="opacity:0.004" fill="#000000" d="M 220.5,62.5 C 221.833,63.1667 221.833,63.1667 220.5,62.5 Z"/></g>
<g><path style="opacity:0.004" fill="#000000" d="M 219.5,65.5 C 220.833,66.1667 220.833,66.1667 219.5,65.5 Z"/></g>
<g><path style="opacity:0.008" fill="#000000" d="M 218.5,68.5 C 219.833,69.1667 219.833,69.1667 218.5,68.5 Z"/></g>
<g><path style="opacity:0.004" fill="#000000" d="M 217.5,70.5 C 218.833,71.1667 218.833,71.1667 217.5,70.5 Z"/></g>
<g><path style="opacity:0.004" fill="#000000" d="M 216.5,73.5 C 217.833,74.1667 217.833,74.1667 216.5,73.5 Z"/></g>
<g><path style="opacity:0.012" fill="#000000" d="M 215.5,76.5 C 216.833,77.1667 216.833,77.1667 215.5,76.5 Z"/></g>
<g><path style="opacity:0.008" fill="#000000" d="M 214.5,78.5 C 215.833,79.1667 215.833,79.1667 214.5,78.5 Z"/></g>
<g><path style="opacity:0.004" fill="#000000" d="M 213.5,81.5 C 214.833,82.1667 214.833,82.1667 213.5,81.5 Z"/></g>
<g><path style="opacity:0.008" fill="#000000" d="M 200.5,83.5 C 200.289,85.4241 199.623,85.7574 198.5,84.5C 199.167,84.1667 199.833,83.8333 200.5,83.5 Z"/></g>
<g><path style="opacity:0.004" fill="#000000" d="M 211.5,86.5 C 212.833,87.1667 212.833,87.1667 211.5,86.5 Z"/></g>
<g><path style="opacity:0.004" fill="#000000" d="M 209.5,92.5 C 210.833,93.1667 210.833,93.1667 209.5,92.5 Z"/></g>
<g><path style="opacity:0.004" fill="#000000" d="M 207.5,97.5 C 208.833,98.1667 208.833,98.1667 207.5,97.5 Z"/></g>
<g><path style="opacity:0.012" fill="#000000" d="M 206.5,100.5 C 207.833,101.167 207.833,101.167 206.5,100.5 Z"/></g>
<g><path style="opacity:0.966" fill="#000000" d="M 560.5,156.5 C 559.307,156.97 558.64,157.97 558.5,159.5C 558.667,160.5 558.833,161.5 559,162.5C 570.234,171.465 580.901,181.132 591,191.5C 607.648,214.044 609.981,238.044 598,263.5C 588.32,277.099 575.153,285.266 558.5,288C 535.552,290.802 512.885,289.302 490.5,283.5C 490.333,265.164 490.5,246.83 491,228.5C 491.333,228.167 491.667,227.833 492,227.5C 506.119,232.161 520.619,233.994 535.5,233C 540.561,231.375 542.228,228.208 540.5,223.5C 538.443,219.933 535.777,216.766 532.5,214C 518.377,204.877 506.544,193.377 497,179.5C 489.555,163.936 488.555,147.936 494,131.5C 501.215,116.963 512.715,107.463 528.5,103C 536.209,101.084 544.043,100.251 552,100.5C 563.566,100.8 575.066,101.8 586.5,103.5C 586.5,120.833 586.5,138.167 586.5,155.5C 581.509,155.126 576.509,154.792 571.5,154.5C 567.531,154.294 563.865,154.961 560.5,156.5 Z"/></g>
<g><path style="opacity:0.004" fill="#000000" d="M 60.5,103.5 C 61.9464,102.387 63.6131,102.22 65.5,103C 63.8659,103.494 62.1992,103.66 60.5,103.5 Z"/></g>
<g><path style="opacity:0.006" fill="#000000" d="M 79.5,103.5 C 98.9957,102.338 118.662,102.171 138.5,103C 118.836,103.5 99.1695,103.667 79.5,103.5 Z"/></g>
<g><path style="opacity:0.016" fill="#000000" d="M 172.5,102.5 C 173.833,103.167 173.833,103.167 172.5,102.5 Z"/></g>
<g><path style="opacity:0.01" fill="#000000" d="M 205.5,102.5 C 208.187,102.336 210.854,102.503 213.5,103C 210.633,103.801 207.966,103.634 205.5,102.5 Z"/></g>
<g><path style="opacity:0.004" fill="#000000" d="M 328.5,103.5 C 346.662,102.338 364.995,102.171 383.5,103C 365.17,103.5 346.836,103.667 328.5,103.5 Z"/></g>
<g><path style="opacity:0.006" fill="#000000" d="M 418.5,103.5 C 437.329,102.338 456.329,102.171 475.5,103C 456.503,103.5 437.503,103.667 418.5,103.5 Z"/></g>
<g><path style="opacity:0.967" fill="#000000" d="M 326.5,104.5 C 346.167,104.5 365.833,104.5 385.5,104.5C 385.333,144.835 385.5,185.168 386,225.5C 386.5,226.667 387.333,227.5 388.5,228C 396.636,229.734 404.802,229.9 413,228.5C 414.711,228.561 416.044,227.894 417,226.5C 417.5,185.835 417.667,145.168 417.5,104.5C 437.167,104.5 456.833,104.5 476.5,104.5C 476.667,160.501 476.5,216.501 476,272.5C 473.414,278.088 469.247,281.921 463.5,284C 422.5,284.667 381.5,284.667 340.5,284C 332.895,282.062 328.395,277.228 327,269.5C 326.5,214.501 326.333,159.501 326.5,104.5 Z"/></g>
<g><path style="opacity:0.004" fill="#000000" d="M 324.5,105.5 C 325.573,106.251 325.74,107.251 325,108.5C 324.517,107.552 324.351,106.552 324.5,105.5 Z"/></g>
<g><path style="opacity:0.008" fill="#000000" d="M 415.5,105.5 C 416.629,107.628 416.796,109.961 416,112.5C 415.503,110.19 415.337,107.857 415.5,105.5 Z"/></g>
<g><path style="opacity:0.008" fill="#000000" d="M 477.5,105.5 C 478.525,105.897 478.692,106.563 478,107.5C 477.536,106.906 477.369,106.239 477.5,105.5 Z"/></g>
<g><path style="opacity:0.004" fill="#000000" d="M 587.5,105.5 C 588.833,106.167 588.833,106.167 587.5,105.5 Z"/></g>
<g><path style="opacity:0.004" fill="#000000" d="M 587.5,151.5 C 588.573,152.251 588.74,153.251 588,154.5C 587.517,153.552 587.351,152.552 587.5,151.5 Z"/></g>
<g><path style="opacity:0.011" fill="#000000" d="M 84.5,155.5 C 85.6009,154.402 86.9343,154.235 88.5,155C 87.2068,155.49 85.8734,155.657 84.5,155.5 Z"/></g>
<g><path style="opacity:0.009" fill="#000000" d="M 264.5,154.5 C 269.539,154.451 269.705,155.118 265,156.5C 264.536,155.906 264.369,155.239 264.5,154.5 Z"/></g>
<g><path style="opacity:0.004" fill="#000000" d="M 577.5,155.5 C 578.833,156.167 578.833,156.167 577.5,155.5 Z"/></g>
<g><path style="opacity:0.01" fill="#000000" d="M 560.5,157.5 C 560.5,157.167 560.5,156.833 560.5,156.5C 563.167,156.833 563.167,157.167 560.5,157.5 Z"/></g>
<g><path style="opacity:0.01" fill="#000000" d="M 582.5,157.5 C 583.601,156.402 584.934,156.235 586.5,157C 585.207,157.49 583.873,157.657 582.5,157.5 Z"/></g>
<g><path style="opacity:0.008" fill="#000000" d="M 560.5,157.5 C 559.833,158.167 559.833,158.167 560.5,157.5 Z"/></g>
<g><path style="opacity:0.008" fill="#000000" d="M 264.5,170.5 C 264.897,169.475 265.563,169.308 266.5,170C 265.906,170.464 265.239,170.631 264.5,170.5 Z"/></g>
<g><path style="opacity:0.007" fill="#000000" d="M 224.5,178.5 C 224.167,178.5 223.833,178.5 223.5,178.5C 223.119,177.069 222.119,176.236 220.5,176C 222.167,175.333 223.833,175.333 225.5,176C 224.748,176.671 224.414,177.504 224.5,178.5 Z"/></g>
<g><path style="opacity:0.012" fill="#000000" d="M 264.5,218.5 C 267.187,218.336 269.854,218.503 272.5,219C 269.633,219.029 267.133,219.862 265,221.5C 264.517,220.552 264.351,219.552 264.5,218.5 Z"/></g>
<g><path style="opacity:0.009" fill="#000000" d="M 108.5,219.5 C 108.833,219.5 109.167,219.5 109.5,219.5C 110.463,220.363 110.463,221.03 109.5,221.5C 108.702,221.043 108.369,220.376 108.5,219.5 Z"/></g>
<g><path style="opacity:0.01" fill="#000000" d="M 540.5,223.5 C 540.657,224.873 540.49,226.207 540,227.5C 539.235,225.934 539.402,224.601 540.5,223.5 Z"/></g>
<g><path style="opacity:0.012" fill="#000000" d="M 387.5,225.5 C 388.833,226.167 388.833,226.167 387.5,225.5 Z"/></g>
<g><path style="opacity:0.008" fill="#000000" d="M 497.5,227.5 C 498.833,228.167 498.833,228.167 497.5,227.5 Z"/></g>
<g><path style="opacity:0.008" fill="#000000" d="M 538.5,228.5 C 539.833,229.167 539.833,229.167 538.5,228.5 Z"/></g>
<g><path style="opacity:0.008" fill="#000000" d="M 519.5,232.5 C 520.251,231.427 521.251,231.26 522.5,232C 521.552,232.483 520.552,232.649 519.5,232.5 Z"/></g>
<g><path style="opacity:0.004" fill="#000000" d="M 533.5,231.5 C 534.833,232.167 534.833,232.167 533.5,231.5 Z"/></g>
<g><path style="opacity:0.008" fill="#000000" d="M 264.5,235.5 C 280.328,234.339 296.328,234.172 312.5,235C 296.503,235.5 280.503,235.667 264.5,235.5 Z"/></g>
<g><path style="opacity:0.004" fill="#000000" d="M 29.5,281.5 C 28.475,281.103 28.3083,280.437 29,279.5C 29.4643,280.094 29.631,280.761 29.5,281.5 Z"/></g>
<g><path style="opacity:0.004" fill="#000000" d="M 158.5,285.5 C 159.833,286.167 159.833,286.167 158.5,285.5 Z"/></g>
<g><path style="opacity:0.016" fill="#000000" d="M 157.5,286.5 C 157.833,286.5 158.167,286.5 158.5,286.5C 158.315,287.17 157.981,287.17 157.5,286.5 Z"/></g>
<g><path style="opacity:0.012" fill="#000000" d="M 156.5,287.5 C 156.833,287.5 157.167,287.5 157.5,287.5C 157.315,288.17 156.981,288.17 156.5,287.5 Z"/></g>
<g><path style="opacity:0.004" fill="#000000" d="M 124.5,290.5 C 123.833,289.167 123.833,289.167 124.5,290.5 Z"/></g>
<g><path style="opacity:0.005" fill="#000000" d="M 141.5,289.5 C 141.5,290.167 141.5,290.833 141.5,291.5C 140.833,291.5 140.5,291.833 140.5,292.5C 140.167,292.5 139.833,292.5 139.5,292.5C 139.427,290.973 140.094,289.973 141.5,289.5 Z"/></g>
<g><path style="opacity:0.004" fill="#000000" d="M 155.5,289.5 C 156.833,290.167 156.833,290.167 155.5,289.5 Z"/></g>
<g><path style="opacity:0.004" fill="#000000" d="M 154.5,290.5 C 154.833,290.5 155.167,290.5 155.5,290.5C 155.315,291.17 154.981,291.17 154.5,290.5 Z"/></g>
<g><path style="opacity:0.008" fill="#000000" d="M 531.5,291.5 C 535.981,290.352 540.648,290.185 545.5,291C 540.845,291.499 536.179,291.666 531.5,291.5 Z"/></g>
<g><path style="opacity:0.004" fill="#000000" d="M 122.5,291.5 C 123.833,292.167 123.833,292.167 122.5,291.5 Z"/></g>
<g><path style="opacity:0.004" fill="#000000" d="M 151.5,294.5 C 152.833,295.167 152.833,295.167 151.5,294.5 Z"/></g>
<g><path style="opacity:0.004" fill="#000000" d="M 120.5,299.5 C 119.833,298.167 119.833,298.167 120.5,299.5 Z"/></g>
<g><path style="opacity:0.008" fill="#000000" d="M 148.5,298.5 C 149.833,299.167 149.833,299.167 148.5,298.5 Z"/></g>
<g><path style="opacity:0.004" fill="#000000" d="M 119.5,301.5 C 118.833,300.167 118.833,300.167 119.5,301.5 Z"/></g>
<g><path style="opacity:0.01" fill="#000000" d="M 131.5,300.5 C 132.167,300.5 132.833,300.5 133.5,300.5C 133.167,301.5 132.5,302.167 131.5,302.5C 131.5,301.833 131.5,301.167 131.5,300.5 Z"/></g>
<g><path style="opacity:0.004" fill="#000000" d="M 115.5,310.5 C 114.833,309.167 114.833,309.167 115.5,310.5 Z"/></g>
<g><path style="opacity:0.004" fill="#000000" d="M 140.5,309.5 C 141.833,310.167 141.833,310.167 140.5,309.5 Z"/></g>
<g><path style="opacity:0.004" fill="#000000" d="M 112.5,313.5 C 113.833,314.167 113.833,314.167 112.5,313.5 Z"/></g>
<g><path style="opacity:0.004" fill="#000000" d="M 137.5,313.5 C 138.833,314.167 138.833,314.167 137.5,313.5 Z"/></g>
<g><path style="opacity:0.004" fill="#000000" d="M 135.5,316.5 C 136.833,317.167 136.833,317.167 135.5,316.5 Z"/></g>
<g><path style="opacity:0.008" fill="#000000" d="M 134.5,317.5 C 134.833,317.5 135.167,317.5 135.5,317.5C 135.315,318.17 134.981,318.17 134.5,317.5 Z"/></g>
<g><path style="opacity:0.004" fill="#000000" d="M 131.5,321.5 C 132.833,322.167 132.833,322.167 131.5,321.5 Z"/></g>
<g><path style="opacity:0.004" fill="#000000" d="M 129.5,324.5 C 130.833,325.167 130.833,325.167 129.5,324.5 Z"/></g>
<g><path style="opacity:0.012" fill="#000000" d="M 128.5,325.5 C 128.833,325.5 129.167,325.5 129.5,325.5C 129.315,326.17 128.981,326.17 128.5,325.5 Z"/></g>
<g><path style="opacity:0.004" fill="#000000" d="M 127.5,327.5 C 128.833,328.167 128.833,328.167 127.5,327.5 Z"/></g>
<g><path style="opacity:0.008" fill="#000000" d="M 126.5,328.5 C 126.833,328.5 127.167,328.5 127.5,328.5C 127.315,329.17 126.981,329.17 126.5,328.5 Z"/></g>
<g><path style="opacity:0.004" fill="#000000" d="M 125.5,330.5 C 126.833,331.167 126.833,331.167 125.5,330.5 Z"/></g>
<g><path style="opacity:0.004" fill="#000000" d="M 124.5,331.5 C 124.833,331.5 125.167,331.5 125.5,331.5C 125.315,332.17 124.981,332.17 124.5,331.5 Z"/></g>
<g><path style="opacity:0.008" fill="#000000" d="M 123.5,332.5 C 123.833,332.5 124.167,332.5 124.5,332.5C 124.315,333.17 123.981,333.17 123.5,332.5 Z"/></g>
<g><path style="opacity:0.004" fill="#000000" d="M 117.5,340.5 C 118.833,341.167 118.833,341.167 117.5,340.5 Z"/></g>
<g><path style="opacity:0.004" fill="#000000" d="M 115.5,343.5 C 116.833,344.167 116.833,344.167 115.5,343.5 Z"/></g>
<g><path style="opacity:0.004" fill="#000000" d="M 112.5,347.5 C 113.833,348.167 113.833,348.167 112.5,347.5 Z"/></g>
<g><path style="opacity:0.004" fill="#000000" d="M 94.5,353.5 C 95.525,353.897 95.6917,354.563 95,355.5C 94.5357,354.906 94.369,354.239 94.5,353.5 Z"/></g>
<g><path style="opacity:0.004" fill="#000000" d="M 107.5,354.5 C 108.833,355.167 108.833,355.167 107.5,354.5 Z"/></g>
</svg>
