<?xml version="1.0" encoding="UTF-8"?>
<!DOCTYPE svg PUBLIC "-//W3C//DTD SVG 1.1//EN" "http://www.w3.org/Graphics/SVG/1.1/DTD/svg11.dtd">
<svg xmlns="http://www.w3.org/2000/svg" version="1.1" width="627px" height="379px" style="shape-rendering:geometricPrecision; text-rendering:geometricPrecision; image-rendering:optimizeQuality; fill-rule:evenodd; clip-rule:evenodd" xmlns:xlink="http://www.w3.org/1999/xlink">
<g><path style="opacity:0.891" fill="#fefefe" d="M 221.5,21.5 C 226.531,21.1803 231.197,22.3469 235.5,25C 238.648,27.7952 240.314,31.2952 240.5,35.5C 234.098,55.6526 227.098,75.6526 219.5,95.5C 251.502,95.3334 283.502,95.5 315.5,96C 316.931,96.4652 318.097,97.2986 319,98.5C 321.167,97 323.333,95.5 325.5,94C 346.589,93.0233 367.589,93.3567 388.5,95C 390.709,96.8734 392.542,99.04 394,101.5C 394.167,140.838 394.667,180.171 395.5,219.5C 399.094,220.426 402.76,220.759 406.5,220.5C 406.491,218.692 406.991,217.025 408,215.5C 408.667,182.833 408.667,150.167 408,117.5C 404.542,108.587 406.375,101.087 413.5,95C 435.078,93.3559 456.745,93.0226 478.5,94C 482,96.1667 484.833,99 487,102.5C 485.819,110.391 485.486,118.391 486,126.5C 496.599,106.765 513.099,95.2648 535.5,92C 553.633,90.7614 571.633,91.7614 589.5,95C 596.858,98.5382 599.025,104.038 596,111.5C 595.833,117.333 595.667,123.167 595.5,129C 595.544,138.608 596.044,148.108 597,157.5C 593.05,166.056 586.55,168.89 577.5,166C 591.674,176.499 602.507,189.665 610,205.5C 611.937,209.646 613.271,213.979 614,218.5C 619.741,255.881 605.241,281.381 570.5,295C 563.08,296.391 555.746,298.058 548.5,300C 541.833,300.667 535.167,300.667 528.5,300C 514.777,297.8 501.111,295.133 487.5,292C 483.479,290.132 481.313,286.965 481,282.5C 477.263,287.578 472.43,291.078 466.5,293C 423.5,293.667 380.5,293.667 337.5,293C 332.221,291.384 327.721,288.551 324,284.5C 323.332,288.499 321.165,291.332 317.5,293C 266.497,293.167 215.497,293.667 164.5,294.5C 147.386,317.219 130.386,340.053 113.5,363C 103.929,370.927 95.0957,370.093 87,360.5C 84.3443,354.726 85.3443,349.726 90,345.5C 97.7917,328.604 104.958,311.604 111.5,294.5C 85.3294,293.217 59.1627,293.217 33,294.5C 21.4092,293.894 17.0758,287.894 20,276.5C 24.4243,270.658 28.0909,264.324 31,257.5C 45.7049,225.924 60.5383,194.424 75.5,163C 63.5,162.667 51.5,162.333 39.5,162C 33.7032,159.24 31.5365,154.74 33,148.5C 39.4707,131.421 46.1373,114.421 53,97.5C 54.214,95.9512 55.714,94.7845 57.5,94C 62.6644,93.0905 67.6644,93.5905 72.5,95.5C 73.938,95.2811 75.2713,94.7811 76.5,94C 87.3333,93.8333 98.1667,93.6667 109,93.5C 128.59,93.6006 148.09,94.1006 167.5,95C 183.606,72.6365 199.106,49.8031 214,26.5C 216.17,24.1769 218.67,22.5103 221.5,21.5 Z M 166.5,150.5 C 164.121,156.807 162.454,163.307 161.5,170C 161.091,175.183 163.091,179.183 167.5,182C 180.589,184.884 193.922,186.217 207.5,186C 196.033,202.433 184.2,218.6 172,234.5C 172.032,232.402 172.699,230.402 174,228.5C 175.424,221.241 172.59,216.408 165.5,214C 152.154,213.833 138.821,213.333 125.5,212.5C 127.418,207.002 130.584,202.335 135,198.5C 140.74,189.361 146.74,180.361 153,171.5C 154.166,166.501 156.833,162.501 161,159.5C 161.843,155.8 163.676,152.8 166.5,150.5 Z M 315.5,161.5 C 317.225,161.843 317.725,162.843 317,164.5C 314.842,163.95 314.342,162.95 315.5,161.5 Z M 485.5,178.5 C 496.215,196.051 510.215,210.551 527.5,222C 528.451,222.718 528.617,223.551 528,224.5C 523.86,222.264 519.527,221.93 515,223.5C 510.171,222.838 505.671,221.338 501.5,219C 497.167,218.333 492.833,218.333 488.5,219C 487.584,219.374 486.75,219.874 486,220.5C 485.5,206.504 485.333,192.504 485.5,178.5 Z M 316.5,224.5 C 317.773,225.077 317.773,225.743 316.5,226.5C 315.537,226.03 315.537,225.363 316.5,224.5 Z"/></g>
<g><path style="opacity:0.968" fill="#000000" d="M 222.5,31.5 C 226.198,30.6798 228.531,32.0131 229.5,35.5C 220.961,58.4534 212.627,81.4534 204.5,104.5C 240.168,104.333 275.835,104.5 311.5,105C 312.491,120.756 312.825,136.589 312.5,152.5C 296.167,152.5 279.833,152.5 263.5,152.5C 263.5,158.833 263.5,165.167 263.5,171.5C 279.17,171.333 294.837,171.5 310.5,172C 311.159,179.424 311.492,186.924 311.5,194.5C 311.492,202.076 311.159,209.576 310.5,217C 294.837,217.5 279.17,217.667 263.5,217.5C 263.5,223.833 263.5,230.167 263.5,236.5C 280.167,236.5 296.833,236.5 313.5,236.5C 313.5,252.5 313.5,268.5 313.5,284.5C 261.499,284.333 209.499,284.5 157.5,285C 139.886,309.615 121.886,333.948 103.5,358C 97.0805,358.911 95.2472,356.411 98,350.5C 107.784,328.479 117.95,306.646 128.5,285C 95.495,284.833 62.495,284.333 29.5,283.5C 49.8497,240.136 70.183,196.803 90.5,153.5C 74.5139,152.501 58.5139,152.167 42.5,152.5C 47.8072,136.413 53.8072,120.58 60.5,105C 98.5044,104.833 136.504,104.333 174.5,103.5C 190.51,79.4714 206.51,55.4714 222.5,31.5 Z M 166.5,150.5 C 163.676,152.8 161.843,155.8 161,159.5C 156.833,162.501 154.166,166.501 153,171.5C 146.74,180.361 140.74,189.361 135,198.5C 130.584,202.335 127.418,207.002 125.5,212.5C 138.821,213.333 152.154,213.833 165.5,214C 172.59,216.408 175.424,221.241 174,228.5C 172.699,230.402 172.032,232.402 172,234.5C 184.2,218.6 196.033,202.433 207.5,186C 193.922,186.217 180.589,184.884 167.5,182C 163.091,179.183 161.091,175.183 161.5,170C 162.454,163.307 164.121,156.807 166.5,150.5 Z"/></g>
<g><path style="opacity:0.92" fill="#fefefe" d="M 205.5,73.5 C 194.503,104.99 183.003,136.323 171,167.5C 170.104,170.025 170.604,172.192 172.5,174C 190.842,174.167 209.176,174.667 227.5,175.5C 193.526,221.974 159.36,268.307 125,314.5C 137.418,285.28 150.252,256.113 163.5,227C 163.561,225.289 162.894,223.956 161.5,223C 143.158,222.833 124.824,222.333 106.5,221.5C 139.523,172.101 172.523,122.768 205.5,73.5 Z M 166.5,150.5 C 163.676,152.8 161.843,155.8 161,159.5C 156.833,162.501 154.166,166.501 153,171.5C 146.74,180.361 140.74,189.361 135,198.5C 130.584,202.335 127.418,207.002 125.5,212.5C 138.821,213.333 152.154,213.833 165.5,214C 172.59,216.408 175.424,221.241 174,228.5C 172.699,230.402 172.032,232.402 172,234.5C 184.2,218.6 196.033,202.433 207.5,186C 193.922,186.217 180.589,184.884 167.5,182C 163.091,179.183 161.091,175.183 161.5,170C 162.454,163.307 164.121,156.807 166.5,150.5 Z"/></g>
<g><path style="opacity:0.973" fill="#000000" d="M 540.5,100.5 C 555.867,100.087 571.034,101.421 586,104.5C 586.5,121.497 586.667,138.497 586.5,155.5C 577.447,154.066 568.447,154.232 559.5,156C 558.426,156.739 557.759,157.739 557.5,159C 559.055,162.561 561.388,165.561 564.5,168C 581.339,178.833 593.839,193.333 602,211.5C 607.886,229.903 606.219,247.57 597,264.5C 587.196,277.825 574.029,285.658 557.5,288C 535.111,290.728 513.111,288.894 491.5,282.5C 490.347,264.877 490.181,247.211 491,229.5C 491.725,228.941 492.558,228.608 493.5,228.5C 507.552,232.715 521.885,234.215 536.5,233C 542.016,229.409 542.849,224.909 539,219.5C 530.774,212.307 522.274,205.473 513.5,199C 489.506,178.03 484.34,153.197 498,124.5C 508.743,110.38 522.91,102.38 540.5,100.5 Z"/></g>
<g><path style="opacity:0.975" fill="#000000" d="M 327.5,104.5 C 346.833,104.5 366.167,104.5 385.5,104.5C 385.333,144.835 385.5,185.168 386,225.5C 386.652,227.723 388.152,228.89 390.5,229C 397.833,229.667 405.167,229.667 412.5,229C 414.329,228.727 415.829,227.893 417,226.5C 417.333,186.167 417.667,145.833 418,105.5C 437.424,104.507 456.924,104.174 476.5,104.5C 476.667,160.168 476.5,215.834 476,271.5C 473.623,278.545 468.79,282.712 461.5,284C 421.833,284.667 382.167,284.667 342.5,284C 335.606,282.774 330.773,278.94 328,272.5C 327.5,216.501 327.333,160.501 327.5,104.5 Z"/></g>
</svg>
