<?xml version="1.0" encoding="UTF-8"?>
<!DOCTYPE svg PUBLIC "-//W3C//DTD SVG 1.1//EN" "http://www.w3.org/Graphics/SVG/1.1/DTD/svg11.dtd">
<svg xmlns="http://www.w3.org/2000/svg" version="1.1" width="627px" height="379px" style="shape-rendering:geometricPrecision; text-rendering:geometricPrecision; image-rendering:optimizeQuality; fill-rule:evenodd; clip-rule:evenodd" xmlns:xlink="http://www.w3.org/1999/xlink">
<g><path style="opacity:1" fill="#1dff09" d="M 216.5,95.5 C 215.957,95.56 215.624,95.8933 215.5,96.5C 248.16,97.4999 280.827,97.8332 313.5,97.5C 315.973,97.7991 318.14,98.7991 320,100.5C 321.823,99.3488 323.656,98.1821 325.5,97C 346.167,96.3333 366.833,96.3333 387.5,97C 389.286,97.7845 390.786,98.9512 392,100.5C 393.488,140.748 393.988,181.081 393.5,221.5C 398.833,221.5 404.167,221.5 409.5,221.5C 409.012,181.081 409.512,140.748 411,100.5C 412.214,98.9512 413.714,97.7845 415.5,97C 436.5,96.3333 457.5,96.3333 478.5,97C 481,98.1667 482.833,100 484,102.5C 484.333,112.5 484.667,122.5 485,132.5C 487.333,126.501 490.166,120.835 493.5,115.5C 497.859,111.472 502.193,107.472 506.5,103.5C 511.265,101.618 515.932,99.4518 520.5,97C 525.664,95.6314 530.664,94.1314 535.5,92.5C 553.286,91.8891 570.953,93.0558 588.5,96C 590.286,96.7845 591.786,97.9512 593,99.5C 594.475,118.741 594.975,138.074 594.5,157.5C 593.023,159.807 591.023,161.64 588.5,163C 583.141,163.359 577.807,163.359 572.5,163C 577.192,167.659 582.192,171.826 587.5,175.5C 590.77,180.44 594.77,184.773 599.5,188.5C 601.326,190.147 602.66,192.147 603.5,194.5C 605.326,199.484 607.659,204.151 610.5,208.5C 611.13,212.048 612.13,215.381 613.5,218.5C 615.808,238.36 611.808,256.693 601.5,273.5C 601.167,274.5 600.5,275.167 599.5,275.5C 597.167,277.167 595.167,279.167 593.5,281.5C 592.415,283.587 590.749,284.92 588.5,285.5C 572.716,294.286 555.716,298.286 537.5,297.5C 529.162,297.192 520.829,296.859 512.5,296.5C 505.723,294.645 498.723,293.312 491.5,292.5C 484.781,289.402 481.947,284.069 483,276.5C 481.807,278.886 480.64,281.22 479.5,283.5C 478.5,285.167 477.167,286.5 475.5,287.5C 472.093,289.473 468.426,290.973 464.5,292C 422.833,292.667 381.167,292.667 339.5,292C 336.049,291.105 332.716,289.938 329.5,288.5C 326.447,285.61 323.947,282.276 322,278.5C 322.87,284.564 320.704,289.064 315.5,292C 264.332,292.167 213.332,292.667 162.5,293.5C 145.53,315.984 128.697,338.65 112,361.5C 108.185,366.877 103.018,368.877 96.5,367.5C 95.5084,367.672 94.8417,367.338 94.5,366.5C 92.4998,364.329 90.6665,361.996 89,359.5C 88.3333,356.167 88.3333,352.833 89,349.5C 90.1882,348.437 90.6882,347.103 90.5,345.5C 92.9569,342.249 94.6236,338.582 95.5,334.5C 101.991,320.681 108.658,306.848 115.5,293C 86.1667,292.667 56.8333,292.333 27.5,292C 23.5,290.333 21.5,287.333 21.5,283C 24.4191,274.33 27.7524,265.83 31.5,257.5C 37.9252,245.908 43.5919,233.908 48.5,221.5C 51.9552,216.254 54.6218,210.587 56.5,204.5C 62.9252,192.908 68.5919,180.908 73.5,168.5C 75.0075,166.819 76.0075,164.819 76.5,162.5C 77.0431,162.44 77.3764,162.107 77.5,161.5C 65.1847,160.501 52.8513,160.168 40.5,160.5C 36.4745,158.456 34.4745,155.123 34.5,150.5C 36.2989,143.77 38.2989,137.103 40.5,130.5C 44.7395,120.975 48.9062,111.309 53,101.5C 54.3946,99.8603 55.8946,98.3603 57.5,97C 94.8333,96.6667 132.167,96.3333 169.5,96C 184.791,73.2526 199.957,50.4192 215,27.5C 220.206,23.1579 226.04,22.3246 232.5,25C 237.211,29.1396 238.711,34.3062 237,40.5C 229.865,58.741 223.031,77.0743 216.5,95.5 Z M 166.5,150.5 C 164.968,155.097 163.635,159.764 162.5,164.5C 159.447,172.609 161.78,178.609 169.5,182.5C 181.852,184.941 194.518,186.108 207.5,186C 206.242,187.741 205.242,189.574 204.5,191.5C 200.103,195.959 196.436,200.959 193.5,206.5C 191.738,207.262 190.738,208.596 190.5,210.5C 186.103,214.959 182.436,219.959 179.5,225.5C 176.864,228.31 174.364,231.31 172,234.5C 172.032,232.402 172.699,230.402 174,228.5C 175.424,221.241 172.59,216.408 165.5,214C 152.154,213.833 138.821,213.333 125.5,212.5C 127.418,207.002 130.584,202.335 135,198.5C 140.74,189.361 146.74,180.361 153,171.5C 154.166,166.501 156.833,162.501 161,159.5C 161.843,155.8 163.676,152.8 166.5,150.5 Z M 315.5,161.5 C 317.225,161.843 317.725,162.843 317,164.5C 314.842,163.95 314.342,162.95 315.5,161.5 Z M 501.5,199.5 C 504.895,203.898 508.895,207.564 513.5,210.5C 514.585,212.587 516.251,213.92 518.5,214.5C 519.262,216.262 520.596,217.262 522.5,217.5C 523.585,219.587 525.251,220.92 527.5,221.5C 528.303,222.423 528.47,223.423 528,224.5C 523.86,222.264 519.527,221.93 515,223.5C 510.171,222.838 505.671,221.338 501.5,219C 497.167,218.333 492.833,218.333 488.5,219C 487.584,219.374 486.75,219.874 486,220.5C 485.333,206.5 485.333,192.5 486,178.5C 489.487,186.809 494.654,193.809 501.5,199.5 Z M 316.5,224.5 C 317.773,225.077 317.773,225.743 316.5,226.5C 315.537,226.03 315.537,225.363 316.5,224.5 Z"/></g>
<g><path style="opacity:0.968" fill="#000000" d="M 222.5,31.5 C 226.198,30.6798 228.531,32.0131 229.5,35.5C 220.961,58.4534 212.627,81.4534 204.5,104.5C 240.168,104.333 275.835,104.5 311.5,105C 312.491,120.756 312.825,136.589 312.5,152.5C 296.167,152.5 279.833,152.5 263.5,152.5C 263.5,158.833 263.5,165.167 263.5,171.5C 279.17,171.333 294.837,171.5 310.5,172C 311.159,179.424 311.492,186.924 311.5,194.5C 311.492,202.076 311.159,209.576 310.5,217C 294.837,217.5 279.17,217.667 263.5,217.5C 263.5,223.833 263.5,230.167 263.5,236.5C 280.167,236.5 296.833,236.5 313.5,236.5C 313.5,252.5 313.5,268.5 313.5,284.5C 261.499,284.333 209.499,284.5 157.5,285C 140.211,308.411 123.044,331.911 106,355.5C 103.153,359.819 100.153,360.152 97,356.5C 96.6753,354.447 97.0087,352.447 98,350.5C 107.784,328.479 117.95,306.646 128.5,285C 95.495,284.833 62.495,284.333 29.5,283.5C 49.8333,240.167 70.1667,196.833 90.5,153.5C 74.5139,152.501 58.5139,152.167 42.5,152.5C 47.8072,136.413 53.8072,120.58 60.5,105C 98.5044,104.833 136.504,104.333 174.5,103.5C 190.51,79.4714 206.51,55.4714 222.5,31.5 Z M 166.5,150.5 C 164.968,155.097 163.635,159.764 162.5,164.5C 159.447,172.609 161.78,178.609 169.5,182.5C 181.852,184.941 194.518,186.108 207.5,186C 206.242,187.741 205.242,189.574 204.5,191.5C 200.103,195.959 196.436,200.959 193.5,206.5C 191.738,207.262 190.738,208.596 190.5,210.5C 186.103,214.959 182.436,219.959 179.5,225.5C 176.864,228.31 174.364,231.31 172,234.5C 172.032,232.402 172.699,230.402 174,228.5C 175.424,221.241 172.59,216.408 165.5,214C 152.154,213.833 138.821,213.333 125.5,212.5C 127.418,207.002 130.584,202.335 135,198.5C 140.74,189.361 146.74,180.361 153,171.5C 154.166,166.501 156.833,162.501 161,159.5C 161.843,155.8 163.676,152.8 166.5,150.5 Z"/></g>
<g><path style="opacity:1" fill="#1bff05" d="M 205.5,73.5 C 194.503,104.99 183.003,136.323 171,167.5C 170.104,170.025 170.604,172.192 172.5,174C 190.842,174.167 209.176,174.667 227.5,175.5C 193.526,221.974 159.36,268.307 125,314.5C 137.418,285.28 150.252,256.113 163.5,227C 163.561,225.289 162.894,223.956 161.5,223C 143.158,222.833 124.824,222.333 106.5,221.5C 139.523,172.101 172.523,122.768 205.5,73.5 Z M 166.5,150.5 C 164.968,155.097 163.635,159.764 162.5,164.5C 159.447,172.609 161.78,178.609 169.5,182.5C 181.852,184.941 194.518,186.108 207.5,186C 206.242,187.741 205.242,189.574 204.5,191.5C 200.103,195.959 196.436,200.959 193.5,206.5C 191.738,207.262 190.738,208.596 190.5,210.5C 186.103,214.959 182.436,219.959 179.5,225.5C 176.864,228.31 174.364,231.31 172,234.5C 172.032,232.402 172.699,230.402 174,228.5C 175.424,221.241 172.59,216.408 165.5,214C 152.154,213.833 138.821,213.333 125.5,212.5C 127.418,207.002 130.584,202.335 135,198.5C 140.74,189.361 146.74,180.361 153,171.5C 154.166,166.501 156.833,162.501 161,159.5C 161.843,155.8 163.676,152.8 166.5,150.5 Z"/></g>
<g><path style="opacity:0.377" fill="#b1ffb0" d="M 493.5,115.5 C 490.166,120.835 487.333,126.501 485,132.5C 484.667,122.5 484.333,112.5 484,102.5C 482.833,100 481,98.1667 478.5,97C 457.5,96.3333 436.5,96.3333 415.5,97C 413.714,97.7845 412.214,98.9512 411,100.5C 409.512,140.748 409.012,181.081 409.5,221.5C 404.167,221.5 398.833,221.5 393.5,221.5C 393.988,181.081 393.488,140.748 392,100.5C 390.786,98.9512 389.286,97.7845 387.5,97C 366.833,96.3333 346.167,96.3333 325.5,97C 323.656,98.1821 321.823,99.3488 320,100.5C 318.14,98.7991 315.973,97.7991 313.5,97.5C 281.167,96.8333 248.833,96.1667 216.5,95.5C 223.031,77.0743 229.865,58.741 237,40.5C 238.711,34.3062 237.211,29.1396 232.5,25C 226.04,22.3246 220.206,23.1579 215,27.5C 199.957,50.4192 184.791,73.2526 169.5,96C 132.167,96.3333 94.8333,96.6667 57.5,97C 55.8946,98.3603 54.3946,99.8603 53,101.5C 48.9062,111.309 44.7395,120.975 40.5,130.5C 44.0911,119.311 48.2578,108.311 53,97.5C 54.214,95.9512 55.714,94.7845 57.5,94C 62.6644,93.0905 67.6644,93.5905 72.5,95.5C 73.938,95.2811 75.2713,94.7811 76.5,94C 102.929,92.9782 129.263,93.4782 155.5,95.5C 159.884,95.4711 164.218,95.1377 168.5,94.5C 183.915,72.0056 199.081,49.3389 214,26.5C 220.702,20.4516 227.869,19.9516 235.5,25C 238.648,27.7952 240.314,31.2952 240.5,35.5C 234.098,55.6526 227.098,75.6526 219.5,95.5C 251.502,95.3334 283.502,95.5 315.5,96C 316.931,96.4652 318.097,97.2986 319,98.5C 321.167,97 323.333,95.5 325.5,94C 346.589,93.0233 367.589,93.3567 388.5,95C 390.709,96.8734 392.542,99.04 394,101.5C 394.167,140.838 394.667,180.171 395.5,219.5C 399.094,220.426 402.76,220.759 406.5,220.5C 406.491,218.692 406.991,217.025 408,215.5C 408.667,182.833 408.667,150.167 408,117.5C 403.981,107.441 406.481,99.6076 415.5,94C 436.5,93.3333 457.5,93.3333 478.5,94C 482,96.1667 484.833,99 487,102.5C 485.819,110.391 485.486,118.391 486,126.5C 487.582,122.106 490.082,118.439 493.5,115.5 Z"/></g>
<g><path style="opacity:0.988" fill="#57ff53" d="M 216.5,95.5 C 248.833,96.1667 281.167,96.8333 313.5,97.5C 280.827,97.8332 248.16,97.4999 215.5,96.5C 215.624,95.8933 215.957,95.56 216.5,95.5 Z"/></g>
<g><path style="opacity:0.694" fill="#a2ffa0" d="M 535.5,92.5 C 530.664,94.1314 525.664,95.6314 520.5,97C 515.932,99.4518 511.265,101.618 506.5,103.5C 514.969,96.896 524.636,93.2293 535.5,92.5 Z"/></g>
<g><path style="opacity:0.973" fill="#000000" d="M 540.5,100.5 C 555.88,99.9552 571.046,101.289 586,104.5C 586.5,121.497 586.667,138.497 586.5,155.5C 577.447,154.066 568.447,154.232 559.5,156C 558.707,157.085 558.04,158.252 557.5,159.5C 559.267,162.77 561.6,165.603 564.5,168C 581.339,178.833 593.839,193.333 602,211.5C 608.417,231.302 606.083,249.969 595,267.5C 585.046,278.895 572.546,285.729 557.5,288C 535.111,290.728 513.111,288.894 491.5,282.5C 490.347,264.877 490.181,247.211 491,229.5C 491.725,228.941 492.558,228.608 493.5,228.5C 507.552,232.715 521.885,234.215 536.5,233C 542.069,229.486 542.902,224.986 539,219.5C 527.373,210.208 516.039,200.541 505,190.5C 487.655,168.622 485.988,145.622 500,121.5C 510.885,109.308 524.385,102.308 540.5,100.5 Z"/></g>
<g><path style="opacity:0.975" fill="#000000" d="M 327.5,104.5 C 346.833,104.5 366.167,104.5 385.5,104.5C 385.333,144.835 385.5,185.168 386,225.5C 386.652,227.723 388.152,228.89 390.5,229C 397.833,229.667 405.167,229.667 412.5,229C 414.329,228.727 415.829,227.893 417,226.5C 417.333,186.167 417.667,145.833 418,105.5C 437.424,104.507 456.924,104.174 476.5,104.5C 476.988,161.226 476.488,217.892 475,274.5C 472.16,280.004 467.66,283.171 461.5,284C 421.5,284.667 381.5,284.667 341.5,284C 335.159,282.325 330.659,278.492 328,272.5C 327.5,216.501 327.333,160.501 327.5,104.5 Z"/></g>
<g><path style="opacity:0.722" fill="#a8ffa7" d="M 506.5,103.5 C 502.193,107.472 497.859,111.472 493.5,115.5C 496.554,110.113 500.887,106.113 506.5,103.5 Z"/></g>
<g><path style="opacity:0.841" fill="#9eff9b" d="M 535.5,92.5 C 546.326,91.341 557.326,91.1743 568.5,92C 576.324,92.6015 583.99,93.9349 591.5,96C 597.391,99.9364 598.891,105.103 596,111.5C 595.5,123.162 595.333,134.829 595.5,146.5C 595.815,150.371 595.482,154.038 594.5,157.5C 594.975,138.074 594.475,118.741 593,99.5C 591.786,97.9512 590.286,96.7845 588.5,96C 570.953,93.0558 553.286,91.8891 535.5,92.5 Z"/></g>
<g><path style="opacity:0.784" fill="#aaffa8" d="M 40.5,130.5 C 38.2989,137.103 36.2989,143.77 34.5,150.5C 34.4745,155.123 36.4745,158.456 40.5,160.5C 52.5,161.167 64.5,161.833 76.5,162.5C 76.0075,164.819 75.0075,166.819 73.5,168.5C 73.472,166.418 74.1387,164.584 75.5,163C 63.5,162.667 51.5,162.333 39.5,162C 33.7032,159.24 31.5365,154.74 33,148.5C 35.0377,142.197 37.5377,136.197 40.5,130.5 Z"/></g>
<g><path style="opacity:0.953" fill="#77ff75" d="M 40.5,160.5 C 52.8513,160.168 65.1847,160.501 77.5,161.5C 77.3764,162.107 77.0431,162.44 76.5,162.5C 64.5,161.833 52.5,161.167 40.5,160.5 Z"/></g>
<g><path style="opacity:0.024" fill="#b3ffb2" d="M 595.5,146.5 C 599.479,154.681 597.479,161.181 589.5,166C 585.425,166.518 581.425,166.518 577.5,166C 581.334,168.668 584.667,171.835 587.5,175.5C 582.192,171.826 577.192,167.659 572.5,163C 577.807,163.359 583.141,163.359 588.5,163C 591.023,161.64 593.023,159.807 594.5,157.5C 595.482,154.038 595.815,150.371 595.5,146.5 Z"/></g>
<g><path style="opacity:0.103" fill="#b2ffb1" d="M 317.5,167.5 C 316.657,165.827 315.324,164.66 313.5,164C 299.131,164.153 285.131,163.32 271.5,161.5C 285.837,161.667 300.171,161.5 314.5,161C 315.931,160.535 317.097,159.701 318,158.5C 318.805,161.696 318.638,164.696 317.5,167.5 Z M 315.5,161.5 C 314.342,162.95 314.842,163.95 317,164.5C 317.725,162.843 317.225,161.843 315.5,161.5 Z"/></g>
<g><path style="opacity:0.662" fill="#a1ff9f" d="M 162.5,164.5 C 162.335,167.85 162.502,171.183 163,174.5C 165.001,177.331 167.167,179.997 169.5,182.5C 161.78,178.609 159.447,172.609 162.5,164.5 Z"/></g>
<g><path style="opacity:0.713" fill="#a3ffa2" d="M 501.5,199.5 C 494.654,193.809 489.487,186.809 486,178.5C 485.333,192.5 485.333,206.5 486,220.5C 486.75,219.874 487.584,219.374 488.5,219C 492.833,218.333 497.167,218.333 501.5,219C 505.671,221.338 510.171,222.838 515,223.5C 519.527,221.93 523.86,222.264 528,224.5C 528.47,223.423 528.303,222.423 527.5,221.5C 529.544,222.031 531.211,223.198 532.5,225C 527.167,225.667 521.833,225.667 516.5,225C 508.649,223.579 500.816,222.079 493,220.5C 489.667,220.5 487,221.833 485,224.5C 484.333,206.833 484.333,189.167 485,171.5C 486.115,175.729 487.781,179.729 490,183.5C 493.607,189.068 497.44,194.402 501.5,199.5 Z"/></g>
<g><path style="opacity:0.557" fill="#a9ffa7" d="M 73.5,168.5 C 68.5919,180.908 62.9252,192.908 56.5,204.5C 61.4081,192.092 67.0748,180.092 73.5,168.5 Z"/></g>
<g><path style="opacity:0.969" fill="#97ff93" d="M 587.5,175.5 C 592.23,179.227 596.23,183.56 599.5,188.5C 594.77,184.773 590.77,180.44 587.5,175.5 Z"/></g>
<g><path style="opacity:0.969" fill="#72ff6f" d="M 317.5,229.5 C 318.833,226.833 318.833,224.167 317.5,221.5C 318.82,203.488 318.82,185.488 317.5,167.5C 318.638,164.696 318.805,161.696 318,158.5C 317.097,159.701 315.931,160.535 314.5,161C 300.171,161.5 285.837,161.667 271.5,161.5C 285.327,160.669 299.327,160.169 313.5,160C 316,158.833 317.833,157 319,154.5C 319.667,180.167 319.667,205.833 319,231.5C 318.283,230.956 317.783,230.289 317.5,229.5 Z"/></g>
<g><path style="opacity:0.008" fill="#b2ffb0" d="M 169.5,182.5 C 183.504,182.333 197.504,182.5 211.5,183C 209.302,186.023 206.969,188.856 204.5,191.5C 205.242,189.574 206.242,187.741 207.5,186C 194.518,186.108 181.852,184.941 169.5,182.5 Z"/></g>
<g><path style="opacity:0.01" fill="#abffa9" d="M 162.5,164.5 C 163.635,159.764 164.968,155.097 166.5,150.5C 163.676,152.8 161.843,155.8 161,159.5C 156.833,162.501 154.166,166.501 153,171.5C 146.74,180.361 140.74,189.361 135,198.5C 130.584,202.335 127.418,207.002 125.5,212.5C 138.821,213.333 152.154,213.833 165.5,214C 172.59,216.408 175.424,221.241 174,228.5C 172.699,230.402 172.032,232.402 172,234.5C 174.364,231.31 176.864,228.31 179.5,225.5C 174.913,232.602 170.079,239.602 165,246.5C 166.656,241.498 168.656,236.498 171,231.5C 172.711,225.306 171.211,220.14 166.5,216C 151.593,214.698 136.593,214.032 121.5,214C 138.209,188.747 155.043,163.581 172,138.5C 169.713,147.532 166.546,156.199 162.5,164.5 Z"/></g>
<g><path style="opacity:0.812" fill="#9fff9d" d="M 204.5,191.5 C 201.564,197.041 197.897,202.041 193.5,206.5C 196.436,200.959 200.103,195.959 204.5,191.5 Z"/></g>
<g><path style="opacity:0.976" fill="#97ff93" d="M 501.5,199.5 C 506.105,202.436 510.105,206.102 513.5,210.5C 508.895,207.564 504.895,203.898 501.5,199.5 Z"/></g>
<g><path style="opacity:0.631" fill="#a4ffa2" d="M 603.5,194.5 C 606.874,198.581 609.207,203.247 610.5,208.5C 607.659,204.151 605.326,199.484 603.5,194.5 Z"/></g>
<g><path style="opacity:0.506" fill="#a9ffa7" d="M 56.5,204.5 C 54.6218,210.587 51.9552,216.254 48.5,221.5C 50.3782,215.413 53.0448,209.746 56.5,204.5 Z"/></g>
<g><path style="opacity:0.314" fill="#acffaa" d="M 610.5,208.5 C 612.68,211.381 613.68,214.714 613.5,218.5C 612.13,215.381 611.13,212.048 610.5,208.5 Z"/></g>
<g><path style="opacity:0.784" fill="#a1ff9f" d="M 190.5,210.5 C 187.564,216.041 183.897,221.041 179.5,225.5C 182.436,219.959 186.103,214.959 190.5,210.5 Z"/></g>
<g><path style="opacity:0.557" fill="#a8ffa7" d="M 513.5,210.5 C 515.749,211.08 517.415,212.413 518.5,214.5C 516.251,213.92 514.585,212.587 513.5,210.5 Z"/></g>
<g><path style="opacity:0.733" fill="#a5ffa4" d="M 522.5,217.5 C 524.749,218.08 526.415,219.413 527.5,221.5C 525.251,220.92 523.585,219.587 522.5,217.5 Z"/></g>
<g><path style="opacity:0.016" fill="#b3ffb2" d="M 317.5,221.5 C 318.833,224.167 318.833,226.833 317.5,229.5C 302.215,228.531 286.881,228.198 271.5,228.5C 271.5,227.5 271.5,226.5 271.5,225.5C 285.504,225.667 299.504,225.5 313.5,225C 314.949,223.898 316.282,222.731 317.5,221.5 Z M 316.5,224.5 C 315.537,225.363 315.537,226.03 316.5,226.5C 317.773,225.743 317.773,225.077 316.5,224.5 Z"/></g>
<g><path style="opacity:0.533" fill="#a9ffa7" d="M 48.5,221.5 C 43.5919,233.908 37.9252,245.908 31.5,257.5C 36.4081,245.092 42.0748,233.092 48.5,221.5 Z"/></g>
<g><path style="opacity:0.545" fill="#a6ffa4" d="M 613.5,218.5 C 616.727,235.925 614.227,252.591 606,268.5C 604.951,270.618 603.451,272.284 601.5,273.5C 611.808,256.693 615.808,238.36 613.5,218.5 Z"/></g>
<g><path style="opacity:0.039" fill="#b3ffb2" d="M 599.5,275.5 C 598.5,278.5 596.5,280.5 593.5,281.5C 595.167,279.167 597.167,277.167 599.5,275.5 Z"/></g>
<g><path style="opacity:0.182" fill="#a5ffa2" d="M 491.5,292.5 C 485.274,292.109 481.774,288.776 481,282.5C 480.617,283.056 480.117,283.389 479.5,283.5C 480.64,281.22 481.807,278.886 483,276.5C 481.947,284.069 484.781,289.402 491.5,292.5 Z"/></g>
<g><path style="opacity:0.801" fill="#a5ffa3" d="M 31.5,257.5 C 27.7524,265.83 24.4191,274.33 21.5,283C 21.5,287.333 23.5,290.333 27.5,292C 56.8333,292.333 86.1667,292.667 115.5,293C 108.658,306.848 101.991,320.681 95.5,334.5C 97.698,328.414 100.198,322.414 103,316.5C 103.359,311.117 105.359,306.451 109,302.5C 109.269,299.648 110.103,296.982 111.5,294.5C 83.4913,293.434 55.4913,293.268 27.5,294C 19.9051,290.527 17.4051,284.694 20,276.5C 24.3617,270.436 28.195,264.102 31.5,257.5 Z"/></g>
<g><path style="opacity:0.795" fill="#9bff99" d="M 329.5,288.5 C 327.284,287.797 325.451,286.464 324,284.5C 323.332,288.499 321.165,291.332 317.5,293C 266.501,293.5 215.501,293.667 164.5,293.5C 163.833,293.5 163.167,293.5 162.5,293.5C 213.332,292.667 264.332,292.167 315.5,292C 320.704,289.064 322.87,284.564 322,278.5C 323.947,282.276 326.447,285.61 329.5,288.5 Z"/></g>
<g><path style="opacity:0.224" fill="#b4ffb3" d="M 475.5,287.5 C 473.2,290.324 470.2,292.157 466.5,293C 423.5,293.667 380.5,293.667 337.5,293C 334.316,292.246 331.649,290.746 329.5,288.5C 332.716,289.938 336.049,291.105 339.5,292C 381.167,292.667 422.833,292.667 464.5,292C 468.426,290.973 472.093,289.473 475.5,287.5 Z"/></g>
<g><path style="opacity:0.871" fill="#a9ffa8" d="M 491.5,292.5 C 498.723,293.312 505.723,294.645 512.5,296.5C 505.19,296.17 498.19,294.837 491.5,292.5 Z"/></g>
<g><path style="opacity:0.255" fill="#adffab" d="M 588.5,285.5 C 584.181,289.332 579.181,292.165 573.5,294C 558.755,298.444 543.755,300.444 528.5,300C 523.146,298.362 517.813,297.196 512.5,296.5C 520.829,296.859 529.162,297.192 537.5,297.5C 555.716,298.286 572.716,294.286 588.5,285.5 Z"/></g>
<g><path style="opacity:0.016" fill="#b3ffb2" d="M 162.5,293.5 C 163.167,293.5 163.833,293.5 164.5,293.5C 148.36,315.75 132.193,338.083 116,360.5C 112.833,363 109.667,365.5 106.5,368C 102.973,368.808 99.6399,368.641 96.5,367.5C 103.018,368.877 108.185,366.877 112,361.5C 128.697,338.65 145.53,315.984 162.5,293.5 Z"/></g>
<g><path style="opacity:0.396" fill="#aaffa8" d="M 95.5,334.5 C 94.6236,338.582 92.9569,342.249 90.5,345.5C 91.3764,341.418 93.0431,337.751 95.5,334.5 Z"/></g>
<g><path style="opacity:0.008" fill="#b6ffb5" d="M 90.5,345.5 C 90.6882,347.103 90.1882,348.437 89,349.5C 88.3333,352.833 88.3333,356.167 89,359.5C 90.6665,361.996 92.4998,364.329 94.5,366.5C 87.2027,363.573 84.3693,358.24 86,350.5C 86.9959,348.34 88.4959,346.673 90.5,345.5 Z"/></g>
</svg>
